<svg xmlns="http://www.w3.org/2000/svg" xmlns:xlink="http://www.w3.org/1999/xlink" width="512" zoomAndPan="magnify" viewBox="0 0 384 383.999986" height="512" preserveAspectRatio="xMidYMid meet" version="1.0"><defs><clipPath id="badb10b5c1"><path d="M 192 0 C 85.960938 0 0 85.960938 0 192 C 0 298.039062 85.960938 384 192 384 C 298.039062 384 384 298.039062 384 192 C 384 85.960938 298.039062 0 192 0 Z M 192 0 " clip-rule="nonzero"/></clipPath><clipPath id="ac388d867c"><path d="M 0 0 L 384 0 L 384 384 L 0 384 Z M 0 0 " clip-rule="nonzero"/></clipPath><clipPath id="d7d4c61ec3"><path d="M 192 0 C 85.960938 0 0 85.960938 0 192 C 0 298.039062 85.960938 384 192 384 C 298.039062 384 384 298.039062 384 192 C 384 85.960938 298.039062 0 192 0 Z M 192 0 " clip-rule="nonzero"/></clipPath><clipPath id="955f1c608b"><rect x="0" width="384" y="0" height="384"/></clipPath><clipPath id="5cd21cfdfc"><path d="M 90.253906 50.929688 L 293.503906 50.929688 L 293.503906 332.929688 L 90.253906 332.929688 Z M 90.253906 50.929688 " clip-rule="nonzero"/></clipPath></defs><g clip-path="url(#badb10b5c1)"><g><g clip-path="url(#955f1c608b)"><g clip-path="url(#ac388d867c)"><g clip-path="url(#d7d4c61ec3)"><rect x="-84.48" width="552.96" fill="#00d1ff" height="552.959979" y="-84.479997" fill-opacity="1"/></g></g></g></g></g><path fill="#ffffff" d="M 201.824219 168.898438 C 203.328125 168.898438 204.828125 168.824219 206.320312 168.675781 C 207.816406 168.527344 209.300781 168.308594 210.773438 168.015625 C 212.25 167.722656 213.703125 167.359375 215.140625 166.921875 C 216.582031 166.484375 217.992188 165.980469 219.382812 165.40625 C 220.769531 164.828125 222.125 164.1875 223.449219 163.480469 C 224.777344 162.769531 226.0625 162 227.3125 161.164062 C 228.5625 160.332031 229.765625 159.4375 230.929688 158.484375 C 232.089844 157.53125 233.203125 156.523438 234.265625 155.460938 C 235.328125 154.398438 236.335938 153.285156 237.289062 152.125 C 238.242188 150.960938 239.136719 149.757812 239.96875 148.507812 C 240.804688 147.257812 241.578125 145.972656 242.285156 144.644531 C 242.992188 143.320312 243.632812 141.964844 244.210938 140.578125 C 244.785156 139.1875 245.289062 137.773438 245.726562 136.335938 C 246.164062 134.898438 246.527344 133.445312 246.820312 131.96875 C 247.113281 130.496094 247.332031 129.011719 247.480469 127.515625 C 247.628906 126.023438 247.703125 124.523438 247.703125 123.019531 C 247.703125 121.519531 247.628906 120.019531 247.480469 118.523438 C 247.332031 117.027344 247.113281 115.542969 246.820312 114.070312 C 246.527344 112.597656 246.164062 111.140625 245.726562 109.703125 C 245.289062 108.265625 244.785156 106.851562 244.210938 105.464844 C 243.632812 104.074219 242.992188 102.71875 242.285156 101.394531 C 241.578125 100.070312 240.804688 98.78125 239.96875 97.53125 C 239.136719 96.285156 238.242188 95.078125 237.289062 93.917969 C 236.335938 92.753906 235.328125 91.644531 234.265625 90.582031 C 233.203125 89.519531 232.089844 88.511719 230.929688 87.558594 C 229.765625 86.605469 228.5625 85.710938 227.3125 84.875 C 226.0625 84.039062 224.777344 83.269531 223.449219 82.5625 C 222.125 81.851562 220.769531 81.210938 219.382812 80.636719 C 217.992188 80.0625 216.582031 79.554688 215.140625 79.117188 C 213.703125 78.683594 212.25 78.316406 210.773438 78.023438 C 209.300781 77.730469 207.816406 77.511719 206.320312 77.363281 C 204.828125 77.21875 203.328125 77.144531 201.824219 77.144531 C 200.324219 77.144531 198.824219 77.21875 197.328125 77.363281 C 195.832031 77.511719 194.347656 77.730469 192.875 78.023438 C 191.402344 78.316406 189.945312 78.683594 188.507812 79.117188 C 187.070312 79.554688 185.65625 80.0625 184.269531 80.636719 C 182.878906 81.210938 181.523438 81.851562 180.199219 82.5625 C 178.875 83.269531 177.585938 84.039062 176.335938 84.875 C 175.089844 85.710938 173.882812 86.605469 172.722656 87.558594 C 171.558594 88.511719 170.449219 89.519531 169.386719 90.582031 C 168.324219 91.644531 167.316406 92.753906 166.363281 93.917969 C 165.410156 95.078125 164.515625 96.285156 163.679688 97.53125 C 162.84375 98.78125 162.074219 100.070312 161.367188 101.394531 C 160.65625 102.71875 160.015625 104.074219 159.441406 105.464844 C 158.867188 106.851562 158.359375 108.265625 157.925781 109.703125 C 157.488281 111.140625 157.125 112.597656 156.828125 114.070312 C 156.535156 115.542969 156.316406 117.027344 156.167969 118.523438 C 156.023438 120.019531 155.949219 121.519531 155.949219 123.019531 C 155.949219 124.523438 156.027344 126.019531 156.175781 127.515625 C 156.324219 129.011719 156.542969 130.492188 156.839844 131.964844 C 157.132812 133.441406 157.5 134.894531 157.933594 136.332031 C 158.371094 137.769531 158.878906 139.179688 159.453125 140.570312 C 160.03125 141.957031 160.671875 143.3125 161.378906 144.636719 C 162.089844 145.960938 162.859375 147.246094 163.695312 148.496094 C 164.53125 149.746094 165.425781 150.949219 166.378906 152.109375 C 167.332031 153.269531 168.339844 154.382812 169.402344 155.445312 C 170.460938 156.507812 171.574219 157.515625 172.734375 158.46875 C 173.894531 159.421875 175.101562 160.316406 176.347656 161.148438 C 177.597656 161.984375 178.886719 162.757812 180.210938 163.464844 C 181.535156 164.171875 182.890625 164.816406 184.277344 165.390625 C 185.664062 165.964844 187.078125 166.472656 188.511719 166.910156 C 189.949219 167.347656 191.40625 167.710938 192.878906 168.007812 C 194.351562 168.300781 195.835938 168.523438 197.328125 168.671875 C 198.824219 168.820312 200.324219 168.894531 201.824219 168.898438 Z M 201.824219 83.699219 C 203.113281 83.699219 204.398438 83.761719 205.679688 83.886719 C 206.960938 84.011719 208.234375 84.203125 209.496094 84.453125 C 210.757812 84.703125 212.007812 85.015625 213.238281 85.390625 C 214.472656 85.765625 215.683594 86.199219 216.875 86.691406 C 218.0625 87.183594 219.226562 87.734375 220.363281 88.339844 C 221.496094 88.949219 222.601562 89.609375 223.671875 90.324219 C 224.742188 91.039062 225.777344 91.804688 226.769531 92.625 C 227.765625 93.441406 228.71875 94.304688 229.628906 95.214844 C 230.542969 96.125 231.40625 97.078125 232.222656 98.074219 C 233.039062 99.070312 233.804688 100.101562 234.519531 101.171875 C 235.234375 102.246094 235.898438 103.347656 236.503906 104.484375 C 237.113281 105.621094 237.660156 106.78125 238.15625 107.972656 C 238.648438 109.160156 239.082031 110.371094 239.453125 111.605469 C 239.828125 112.835938 240.140625 114.085938 240.390625 115.347656 C 240.644531 116.613281 240.832031 117.882812 240.957031 119.164062 C 241.085938 120.449219 241.148438 121.730469 241.148438 123.019531 C 241.148438 124.308594 241.085938 125.59375 240.957031 126.875 C 240.832031 128.15625 240.644531 129.429688 240.390625 130.691406 C 240.140625 131.953125 239.828125 133.203125 239.453125 134.433594 C 239.082031 135.667969 238.648438 136.878906 238.15625 138.070312 C 237.660156 139.257812 237.113281 140.421875 236.503906 141.558594 C 235.898438 142.691406 235.234375 143.796875 234.519531 144.867188 C 233.804688 145.9375 233.039062 146.972656 232.222656 147.964844 C 231.40625 148.960938 230.542969 149.914062 229.628906 150.824219 C 228.71875 151.734375 227.765625 152.601562 226.769531 153.417969 C 225.777344 154.234375 224.742188 155 223.671875 155.714844 C 222.601562 156.429688 221.496094 157.09375 220.363281 157.699219 C 219.226562 158.308594 218.0625 158.855469 216.875 159.351562 C 215.683594 159.84375 214.472656 160.277344 213.238281 160.648438 C 212.007812 161.023438 210.757812 161.335938 209.496094 161.585938 C 208.234375 161.839844 206.960938 162.027344 205.679688 162.152344 C 204.398438 162.28125 203.113281 162.34375 201.824219 162.34375 C 200.539062 162.34375 199.253906 162.28125 197.972656 162.152344 C 196.6875 162.027344 195.417969 161.839844 194.152344 161.585938 C 192.890625 161.335938 191.644531 161.023438 190.410156 160.648438 C 189.179688 160.277344 187.964844 159.84375 186.777344 159.351562 C 185.585938 158.855469 184.425781 158.308594 183.289062 157.699219 C 182.152344 157.09375 181.050781 156.429688 179.976562 155.714844 C 178.90625 155 177.875 154.234375 176.878906 153.417969 C 175.882812 152.601562 174.929688 151.734375 174.019531 150.824219 C 173.109375 149.914062 172.246094 148.960938 171.429688 147.964844 C 170.609375 146.972656 169.84375 145.9375 169.128906 144.867188 C 168.414062 143.796875 167.753906 142.691406 167.144531 141.558594 C 166.539062 140.421875 165.988281 139.257812 165.496094 138.070312 C 165.003906 136.878906 164.570312 135.667969 164.195312 134.433594 C 163.820312 133.203125 163.507812 131.953125 163.257812 130.691406 C 163.007812 129.429688 162.816406 128.15625 162.691406 126.875 C 162.566406 125.59375 162.503906 124.308594 162.503906 123.019531 C 162.503906 121.734375 162.566406 120.449219 162.695312 119.167969 C 162.824219 117.886719 163.011719 116.613281 163.265625 115.351562 C 163.519531 114.089844 163.832031 112.84375 164.207031 111.609375 C 164.582031 110.378906 165.015625 109.167969 165.507812 107.980469 C 166 106.789062 166.550781 105.628906 167.160156 104.492188 C 167.765625 103.355469 168.425781 102.253906 169.144531 101.183594 C 169.859375 100.113281 170.625 99.082031 171.441406 98.085938 C 172.257812 97.089844 173.121094 96.136719 174.03125 95.226562 C 174.941406 94.316406 175.894531 93.453125 176.890625 92.636719 C 177.886719 91.820312 178.917969 91.054688 179.988281 90.339844 C 181.058594 89.621094 182.164062 88.960938 183.296875 88.355469 C 184.433594 87.746094 185.59375 87.195312 186.785156 86.703125 C 187.972656 86.210938 189.183594 85.777344 190.414062 85.402344 C 191.648438 85.027344 192.894531 84.710938 194.15625 84.460938 C 195.417969 84.207031 196.691406 84.019531 197.972656 83.890625 C 199.253906 83.761719 200.539062 83.699219 201.824219 83.699219 Z M 201.824219 83.699219 " fill-opacity="1" fill-rule="nonzero"/><path fill="#ffffff" d="M 187.101562 145.53125 C 187.617188 145.824219 188.167969 145.964844 188.757812 145.957031 C 189.347656 145.953125 189.898438 145.796875 190.402344 145.492188 L 223.171875 125.828125 C 223.414062 125.683594 223.636719 125.511719 223.832031 125.308594 C 224.03125 125.105469 224.199219 124.878906 224.339844 124.632812 C 224.476562 124.386719 224.582031 124.128906 224.65625 123.855469 C 224.726562 123.582031 224.761719 123.304688 224.761719 123.019531 C 224.761719 122.738281 224.726562 122.460938 224.65625 122.183594 C 224.582031 121.910156 224.476562 121.652344 224.339844 121.40625 C 224.199219 121.160156 224.03125 120.933594 223.832031 120.734375 C 223.636719 120.53125 223.414062 120.355469 223.171875 120.210938 L 190.402344 100.550781 C 189.898438 100.246094 189.347656 100.089844 188.757812 100.082031 C 188.167969 100.074219 187.617188 100.214844 187.101562 100.507812 C 186.589844 100.796875 186.183594 101.199219 185.886719 101.707031 C 185.589844 102.21875 185.441406 102.769531 185.441406 103.359375 L 185.441406 142.679688 C 185.441406 143.273438 185.589844 143.820312 185.886719 144.332031 C 186.183594 144.84375 186.589844 145.242188 187.101562 145.53125 Z M 191.996094 109.144531 L 215.117188 123.019531 L 191.996094 136.894531 Z M 191.996094 109.144531 " fill-opacity="1" fill-rule="nonzero"/><path fill="#ffffff" d="M 139.5625 188.558594 L 264.085938 188.558594 C 264.519531 188.558594 264.9375 188.476562 265.339844 188.308594 C 265.742188 188.140625 266.097656 187.90625 266.402344 187.597656 C 266.710938 187.292969 266.945312 186.9375 267.113281 186.535156 C 267.28125 186.132812 267.363281 185.714844 267.363281 185.28125 C 267.363281 184.847656 267.28125 184.429688 267.113281 184.027344 C 266.945312 183.625 266.710938 183.269531 266.402344 182.964844 C 266.097656 182.65625 265.742188 182.421875 265.339844 182.253906 C 264.9375 182.085938 264.519531 182.003906 264.085938 182.003906 L 139.5625 182.003906 C 139.128906 182.003906 138.710938 182.085938 138.308594 182.253906 C 137.910156 182.421875 137.554688 182.65625 137.246094 182.964844 C 136.941406 183.269531 136.703125 183.625 136.535156 184.027344 C 136.371094 184.429688 136.289062 184.847656 136.289062 185.28125 C 136.289062 185.714844 136.371094 186.132812 136.535156 186.535156 C 136.703125 186.9375 136.941406 187.292969 137.246094 187.597656 C 137.554688 187.90625 137.910156 188.140625 138.308594 188.308594 C 138.710938 188.476562 139.128906 188.558594 139.5625 188.558594 Z M 139.5625 188.558594 " fill-opacity="1" fill-rule="nonzero"/><path fill="#ffffff" d="M 139.5625 208.21875 L 237.871094 208.21875 C 238.304688 208.21875 238.722656 208.136719 239.125 207.96875 C 239.527344 207.804688 239.878906 207.566406 240.1875 207.257812 C 240.496094 206.953125 240.730469 206.597656 240.898438 206.195312 C 241.066406 205.796875 241.148438 205.378906 241.148438 204.941406 C 241.148438 204.507812 241.066406 204.089844 240.898438 203.6875 C 240.730469 203.285156 240.496094 202.933594 240.1875 202.625 C 239.878906 202.316406 239.527344 202.082031 239.125 201.914062 C 238.722656 201.75 238.304688 201.664062 237.871094 201.664062 L 139.5625 201.664062 C 139.128906 201.664062 138.710938 201.75 138.308594 201.914062 C 137.910156 202.082031 137.554688 202.316406 137.246094 202.625 C 136.941406 202.933594 136.703125 203.285156 136.535156 203.6875 C 136.371094 204.089844 136.289062 204.507812 136.289062 204.941406 C 136.289062 205.378906 136.371094 205.796875 136.535156 206.195312 C 136.703125 206.597656 136.941406 206.953125 137.246094 207.257812 C 137.554688 207.566406 137.910156 207.804688 138.308594 207.96875 C 138.710938 208.136719 139.128906 208.21875 139.5625 208.21875 Z M 139.5625 208.21875 " fill-opacity="1" fill-rule="nonzero"/><path fill="#ffffff" d="M 139.5625 227.878906 L 237.871094 227.878906 C 238.304688 227.878906 238.722656 227.796875 239.125 227.632812 C 239.527344 227.464844 239.878906 227.226562 240.1875 226.921875 C 240.496094 226.613281 240.730469 226.257812 240.898438 225.859375 C 241.066406 225.457031 241.148438 225.039062 241.148438 224.605469 C 241.148438 224.167969 241.066406 223.75 240.898438 223.351562 C 240.730469 222.949219 240.496094 222.59375 240.1875 222.285156 C 239.878906 221.980469 239.527344 221.742188 239.125 221.578125 C 238.722656 221.410156 238.304688 221.328125 237.871094 221.328125 L 139.5625 221.328125 C 139.128906 221.328125 138.710938 221.410156 138.308594 221.578125 C 137.910156 221.742188 137.554688 221.980469 137.246094 222.285156 C 136.941406 222.59375 136.703125 222.949219 136.535156 223.351562 C 136.371094 223.75 136.289062 224.167969 136.289062 224.605469 C 136.289062 225.039062 136.371094 225.457031 136.535156 225.859375 C 136.703125 226.257812 136.941406 226.613281 137.246094 226.921875 C 137.554688 227.226562 137.910156 227.464844 138.308594 227.632812 C 138.710938 227.796875 139.128906 227.878906 139.5625 227.878906 Z M 139.5625 227.878906 " fill-opacity="1" fill-rule="nonzero"/><path fill="#ffffff" d="M 237.871094 240.988281 L 139.5625 240.988281 C 139.128906 240.988281 138.710938 241.070312 138.308594 241.238281 C 137.910156 241.402344 137.554688 241.640625 137.246094 241.949219 C 136.941406 242.253906 136.703125 242.609375 136.535156 243.011719 C 136.371094 243.414062 136.289062 243.832031 136.289062 244.265625 C 136.289062 244.699219 136.371094 245.117188 136.535156 245.519531 C 136.703125 245.921875 136.941406 246.273438 137.246094 246.582031 C 137.554688 246.890625 137.910156 247.125 138.308594 247.292969 C 138.710938 247.460938 139.128906 247.542969 139.5625 247.542969 L 237.871094 247.542969 C 238.304688 247.542969 238.722656 247.460938 239.125 247.292969 C 239.527344 247.125 239.878906 246.890625 240.1875 246.582031 C 240.496094 246.273438 240.730469 245.921875 240.898438 245.519531 C 241.066406 245.117188 241.148438 244.699219 241.148438 244.265625 C 241.148438 243.832031 241.066406 243.414062 240.898438 243.011719 C 240.730469 242.609375 240.496094 242.253906 240.1875 241.949219 C 239.878906 241.640625 239.527344 241.402344 239.125 241.238281 C 238.722656 241.070312 238.304688 240.988281 237.871094 240.988281 Z M 237.871094 240.988281 " fill-opacity="1" fill-rule="nonzero"/><path fill="#ffffff" d="M 264.085938 201.664062 L 250.976562 201.664062 C 250.542969 201.664062 250.125 201.75 249.722656 201.914062 C 249.324219 202.082031 248.96875 202.316406 248.660156 202.625 C 248.355469 202.933594 248.117188 203.285156 247.949219 203.6875 C 247.785156 204.089844 247.703125 204.507812 247.703125 204.941406 C 247.703125 205.378906 247.785156 205.796875 247.949219 206.195312 C 248.117188 206.597656 248.355469 206.953125 248.660156 207.257812 C 248.96875 207.566406 249.324219 207.804688 249.722656 207.96875 C 250.125 208.136719 250.542969 208.21875 250.976562 208.21875 L 264.085938 208.21875 C 264.519531 208.21875 264.9375 208.136719 265.339844 207.96875 C 265.742188 207.804688 266.097656 207.566406 266.402344 207.257812 C 266.710938 206.953125 266.945312 206.597656 267.113281 206.195312 C 267.28125 205.796875 267.363281 205.378906 267.363281 204.941406 C 267.363281 204.507812 267.28125 204.089844 267.113281 203.6875 C 266.945312 203.285156 266.710938 202.933594 266.402344 202.625 C 266.097656 202.316406 265.742188 202.082031 265.339844 201.914062 C 264.9375 201.75 264.519531 201.664062 264.085938 201.664062 Z M 264.085938 201.664062 " fill-opacity="1" fill-rule="nonzero"/><path fill="#ffffff" d="M 264.085938 221.328125 L 250.976562 221.328125 C 250.542969 221.328125 250.125 221.410156 249.722656 221.578125 C 249.324219 221.742188 248.96875 221.980469 248.660156 222.285156 C 248.355469 222.59375 248.117188 222.949219 247.949219 223.351562 C 247.785156 223.75 247.703125 224.167969 247.703125 224.605469 C 247.703125 225.039062 247.785156 225.457031 247.949219 225.859375 C 248.117188 226.257812 248.355469 226.613281 248.660156 226.921875 C 248.96875 227.226562 249.324219 227.464844 249.722656 227.632812 C 250.125 227.796875 250.542969 227.878906 250.976562 227.878906 L 264.085938 227.878906 C 264.519531 227.878906 264.9375 227.796875 265.339844 227.632812 C 265.742188 227.464844 266.097656 227.226562 266.402344 226.921875 C 266.710938 226.613281 266.945312 226.257812 267.113281 225.859375 C 267.28125 225.457031 267.363281 225.039062 267.363281 224.605469 C 267.363281 224.167969 267.28125 223.75 267.113281 223.351562 C 266.945312 222.949219 266.710938 222.59375 266.402344 222.285156 C 266.097656 221.980469 265.742188 221.742188 265.339844 221.578125 C 264.9375 221.410156 264.519531 221.328125 264.085938 221.328125 Z M 264.085938 221.328125 " fill-opacity="1" fill-rule="nonzero"/><path fill="#ffffff" d="M 264.085938 240.988281 L 250.976562 240.988281 C 250.542969 240.988281 250.125 241.070312 249.722656 241.238281 C 249.324219 241.402344 248.96875 241.640625 248.660156 241.949219 C 248.355469 242.253906 248.117188 242.609375 247.949219 243.011719 C 247.785156 243.414062 247.703125 243.832031 247.703125 244.265625 C 247.703125 244.699219 247.785156 245.117188 247.949219 245.519531 C 248.117188 245.921875 248.355469 246.273438 248.660156 246.582031 C 248.96875 246.890625 249.324219 247.125 249.722656 247.292969 C 250.125 247.460938 250.542969 247.542969 250.976562 247.542969 L 264.085938 247.542969 C 264.519531 247.542969 264.9375 247.460938 265.339844 247.292969 C 265.742188 247.125 266.097656 246.890625 266.402344 246.582031 C 266.710938 246.273438 266.945312 245.921875 267.113281 245.519531 C 267.28125 245.117188 267.363281 244.699219 267.363281 244.265625 C 267.363281 243.832031 267.28125 243.414062 267.113281 243.011719 C 266.945312 242.609375 266.710938 242.253906 266.402344 241.949219 C 266.097656 241.640625 265.742188 241.402344 265.339844 241.238281 C 264.9375 241.070312 264.519531 240.988281 264.085938 240.988281 Z M 264.085938 240.988281 " fill-opacity="1" fill-rule="nonzero"/><g clip-path="url(#5cd21cfdfc)"><path fill="#ffffff" d="M 290.734375 273.730469 C 291.125 273.664062 291.488281 273.539062 291.835938 273.347656 C 292.179688 273.15625 292.480469 272.914062 292.742188 272.617188 C 293 272.320312 293.203125 271.988281 293.34375 271.621094 C 293.488281 271.253906 293.566406 270.875 293.578125 270.480469 L 293.578125 54.207031 C 293.578125 53.769531 293.496094 53.351562 293.328125 52.953125 C 293.164062 52.550781 292.925781 52.195312 292.617188 51.886719 C 292.3125 51.582031 291.957031 51.34375 291.554688 51.179688 C 291.152344 51.011719 290.734375 50.929688 290.300781 50.929688 L 106.796875 50.929688 C 106.257812 50.929688 105.722656 50.957031 105.191406 51.007812 C 104.65625 51.0625 104.125 51.140625 103.601562 51.246094 C 103.074219 51.351562 102.554688 51.480469 102.042969 51.636719 C 101.527344 51.792969 101.023438 51.976562 100.527344 52.179688 C 100.03125 52.386719 99.546875 52.617188 99.074219 52.867188 C 98.601562 53.121094 98.144531 53.398438 97.695312 53.695312 C 97.25 53.992188 96.820312 54.3125 96.40625 54.652344 C 95.992188 54.992188 95.59375 55.355469 95.214844 55.734375 C 94.835938 56.113281 94.476562 56.507812 94.136719 56.925781 C 93.796875 57.339844 93.476562 57.769531 93.179688 58.214844 C 92.878906 58.660156 92.605469 59.121094 92.351562 59.59375 C 92.097656 60.066406 91.867188 60.550781 91.664062 61.046875 C 91.457031 61.542969 91.277344 62.046875 91.121094 62.558594 C 90.964844 63.070312 90.832031 63.59375 90.730469 64.117188 C 90.625 64.644531 90.542969 65.175781 90.492188 65.707031 C 90.4375 66.242188 90.410156 66.777344 90.410156 67.3125 L 90.410156 283.589844 C 90.410156 284.125 90.4375 284.660156 90.492188 285.195312 C 90.542969 285.726562 90.625 286.257812 90.730469 286.785156 C 90.832031 287.308594 90.964844 287.828125 91.121094 288.34375 C 91.277344 288.855469 91.457031 289.359375 91.664062 289.855469 C 91.867188 290.351562 92.097656 290.835938 92.351562 291.308594 C 92.605469 291.78125 92.878906 292.242188 93.179688 292.6875 C 93.476562 293.132812 93.796875 293.5625 94.136719 293.976562 C 94.476562 294.390625 94.835938 294.789062 95.214844 295.167969 C 95.59375 295.546875 95.992188 295.90625 96.40625 296.246094 C 96.820312 296.589844 97.25 296.90625 97.695312 297.207031 C 98.144531 297.503906 98.601562 297.777344 99.074219 298.03125 C 99.546875 298.285156 100.03125 298.515625 100.527344 298.71875 C 101.023438 298.925781 101.527344 299.105469 102.042969 299.261719 C 102.554688 299.417969 103.074219 299.550781 103.601562 299.65625 C 104.125 299.757812 104.65625 299.839844 105.191406 299.890625 C 105.722656 299.945312 106.257812 299.972656 106.796875 299.972656 L 191.996094 299.972656 L 191.996094 329.464844 C 191.992188 330.101562 192.164062 330.6875 192.503906 331.222656 C 192.847656 331.761719 193.304688 332.164062 193.882812 332.433594 C 194.457031 332.703125 195.058594 332.796875 195.691406 332.714844 C 196.320312 332.632812 196.878906 332.390625 197.367188 331.980469 L 214.933594 317.347656 L 232.496094 331.980469 C 232.984375 332.390625 233.542969 332.632812 234.175781 332.714844 C 234.804688 332.796875 235.410156 332.703125 235.984375 332.433594 C 236.558594 332.164062 237.019531 331.761719 237.359375 331.222656 C 237.699219 330.6875 237.871094 330.101562 237.871094 329.464844 L 237.871094 299.972656 L 290.300781 299.972656 C 290.71875 299.972656 291.117188 299.894531 291.503906 299.742188 C 291.890625 299.589844 292.238281 299.371094 292.539062 299.089844 C 292.84375 298.804688 293.085938 298.472656 293.261719 298.097656 C 293.441406 297.722656 293.542969 297.328125 293.570312 296.914062 C 293.597656 296.5 293.550781 296.09375 293.421875 295.695312 C 293.296875 295.300781 293.101562 294.941406 292.835938 294.621094 C 292.574219 294.296875 292.261719 294.035156 291.898438 293.832031 C 291.535156 293.632812 291.148438 293.503906 290.734375 293.449219 C 290.140625 293.367188 289.5625 293.238281 288.992188 293.054688 C 288.425781 292.871094 287.875 292.636719 287.351562 292.355469 C 286.824219 292.070312 286.324219 291.746094 285.859375 291.371094 C 285.390625 291 284.960938 290.589844 284.566406 290.140625 C 284.171875 289.691406 283.820312 289.210938 283.515625 288.695312 C 283.207031 288.183594 282.949219 287.648438 282.738281 287.089844 C 282.527344 286.527344 282.371094 285.953125 282.261719 285.367188 C 282.15625 284.777344 282.101562 284.1875 282.101562 283.589844 C 282.101562 282.992188 282.15625 282.398438 282.261719 281.808594 C 282.371094 281.222656 282.527344 280.648438 282.738281 280.089844 C 282.949219 279.527344 283.207031 278.992188 283.515625 278.480469 C 283.820312 277.964844 284.171875 277.484375 284.566406 277.035156 C 284.960938 276.585938 285.390625 276.175781 285.859375 275.804688 C 286.324219 275.429688 286.824219 275.105469 287.351562 274.820312 C 287.875 274.539062 288.425781 274.304688 288.992188 274.121094 C 289.5625 273.9375 290.140625 273.808594 290.734375 273.730469 Z M 287.023438 267.203125 L 116.625 267.203125 L 116.625 57.480469 L 287.023438 57.480469 Z M 96.964844 67.3125 C 96.964844 66.667969 97.027344 66.027344 97.15625 65.394531 C 97.28125 64.761719 97.46875 64.148438 97.714844 63.550781 C 97.964844 62.957031 98.265625 62.390625 98.625 61.855469 C 98.984375 61.316406 99.390625 60.820312 99.847656 60.363281 C 100.304688 59.910156 100.800781 59.5 101.335938 59.140625 C 101.871094 58.785156 102.4375 58.480469 103.035156 58.234375 C 103.628906 57.984375 104.246094 57.800781 104.878906 57.671875 C 105.511719 57.546875 106.148438 57.484375 106.796875 57.480469 L 110.070312 57.480469 L 110.070312 267.203125 L 106.796875 267.203125 C 105.027344 267.230469 103.304688 267.523438 101.625 268.085938 C 99.949219 268.644531 98.394531 269.445312 96.964844 270.488281 Z M 106.796875 293.417969 C 106.148438 293.417969 105.511719 293.355469 104.878906 293.230469 C 104.246094 293.105469 103.628906 292.917969 103.03125 292.671875 C 102.4375 292.421875 101.871094 292.121094 101.332031 291.761719 C 100.796875 291.402344 100.300781 290.996094 99.84375 290.539062 C 99.386719 290.082031 98.980469 289.585938 98.621094 289.050781 C 98.261719 288.511719 97.960938 287.945312 97.710938 287.351562 C 97.464844 286.753906 97.277344 286.140625 97.152344 285.507812 C 97.027344 284.871094 96.964844 284.234375 96.964844 283.589844 C 96.964844 282.941406 97.027344 282.304688 97.152344 281.671875 C 97.277344 281.035156 97.464844 280.421875 97.710938 279.824219 C 97.960938 279.230469 98.261719 278.664062 98.621094 278.125 C 98.980469 277.589844 99.386719 277.09375 99.84375 276.636719 C 100.300781 276.179688 100.796875 275.773438 101.332031 275.414062 C 101.871094 275.054688 102.4375 274.753906 103.03125 274.503906 C 103.628906 274.257812 104.246094 274.070312 104.878906 273.945312 C 105.511719 273.820312 106.148438 273.757812 106.796875 273.757812 L 278.675781 273.757812 C 277.285156 275.742188 276.363281 277.929688 275.914062 280.3125 L 106.796875 280.3125 C 106.359375 280.3125 105.941406 280.394531 105.542969 280.5625 C 105.140625 280.726562 104.785156 280.964844 104.476562 281.269531 C 104.171875 281.578125 103.933594 281.933594 103.769531 282.335938 C 103.601562 282.734375 103.519531 283.152344 103.519531 283.589844 C 103.519531 284.023438 103.601562 284.441406 103.769531 284.84375 C 103.933594 285.242188 104.171875 285.597656 104.476562 285.90625 C 104.785156 286.210938 105.140625 286.449219 105.542969 286.617188 C 105.941406 286.78125 106.359375 286.863281 106.796875 286.863281 L 191.996094 286.863281 L 191.996094 293.417969 Z M 231.316406 322.46875 L 217.03125 310.5625 C 216.734375 310.316406 216.410156 310.128906 216.046875 310 C 215.6875 309.867188 215.316406 309.804688 214.933594 309.804688 C 214.550781 309.804688 214.175781 309.867188 213.816406 310 C 213.457031 310.128906 213.128906 310.316406 212.835938 310.5625 L 198.546875 322.46875 L 198.546875 286.863281 L 231.316406 286.863281 Z M 237.871094 293.417969 L 237.871094 286.863281 L 275.914062 286.863281 C 276.363281 289.246094 277.285156 291.433594 278.675781 293.417969 Z M 237.871094 293.417969 " fill-opacity="1" fill-rule="nonzero"/></g></svg>