<svg xmlns="http://www.w3.org/2000/svg" xmlns:xlink="http://www.w3.org/1999/xlink" width="128" zoomAndPan="magnify" viewBox="0 0 96 95.999999" height="128" preserveAspectRatio="xMidYMid meet" version="1.0"><defs><clipPath id="b094a15238"><path d="M 16.214844 16.214844 L 79.785156 16.214844 L 79.785156 79.785156 L 16.214844 79.785156 Z M 16.214844 16.214844 " clip-rule="nonzero"/></clipPath><clipPath id="4f6f75b51a"><path d="M 48 16.214844 C 30.445312 16.214844 16.214844 30.445312 16.214844 48 C 16.214844 65.554688 30.445312 79.785156 48 79.785156 C 65.554688 79.785156 79.785156 65.554688 79.785156 48 C 79.785156 30.445312 65.554688 16.214844 48 16.214844 Z M 48 16.214844 " clip-rule="nonzero"/></clipPath><clipPath id="316dee0023"><path d="M 0.214844 0.214844 L 63.785156 0.214844 L 63.785156 63.785156 L 0.214844 63.785156 Z M 0.214844 0.214844 " clip-rule="nonzero"/></clipPath><clipPath id="0b20e58c64"><path d="M 32 0.214844 C 14.445312 0.214844 0.214844 14.445312 0.214844 32 C 0.214844 49.554688 14.445312 63.785156 32 63.785156 C 49.554688 63.785156 63.785156 49.554688 63.785156 32 C 63.785156 14.445312 49.554688 0.214844 32 0.214844 Z M 32 0.214844 " clip-rule="nonzero"/></clipPath><clipPath id="c99ccccc59"><rect x="0" width="64" y="0" height="64"/></clipPath><clipPath id="9de0177f8f"><path d="M 14.425781 14.425781 L 81.925781 14.425781 L 81.925781 81.925781 L 14.425781 81.925781 Z M 14.425781 14.425781 " clip-rule="nonzero"/></clipPath></defs><g clip-path="url(#b094a15238)"><g clip-path="url(#4f6f75b51a)"><g transform="matrix(1, 0, 0, 1, 16, 16)"><g clip-path="url(#c99ccccc59)"><g clip-path="url(#316dee0023)"><g clip-path="url(#0b20e58c64)"><path fill="#00d1ff" d="M 0.214844 0.214844 L 63.785156 0.214844 L 63.785156 63.785156 L 0.214844 63.785156 Z M 0.214844 0.214844 " fill-opacity="1" fill-rule="nonzero"/></g></g></g></g></g></g><path fill="#ffffff" d="M 39.078125 33.832031 L 39.1875 64.300781 C 47.871094 59.195312 56.554688 54.089844 65.242188 48.980469 L 39.078125 33.832031 " fill-opacity="0.996" fill-rule="nonzero"/><g clip-path="url(#9de0177f8f)"><path fill="#ffffff" d="M 81.582031 48.007812 C 81.582031 66.550781 66.550781 81.582031 48.007812 81.582031 C 29.460938 81.582031 14.429688 66.550781 14.429688 48.007812 C 14.429688 29.460938 29.460938 14.429688 48.007812 14.429688 C 66.550781 14.429688 81.582031 29.460938 81.582031 48.007812 M 78.058594 48.007812 C 78.058594 31.410156 64.601562 17.953125 48.007812 17.953125 C 31.410156 17.953125 17.953125 31.410156 17.953125 48.007812 C 17.953125 64.601562 31.410156 78.058594 48.007812 78.058594 C 64.601562 78.058594 78.058594 64.601562 78.058594 48.007812 Z M 78.058594 48.007812 " fill-opacity="1" fill-rule="nonzero"/></g></svg>